G04 Layer_Physical_Order=1*
G04 Layer_Color=255*
%FSAX24Y24*%
%MOIN*%
G70*
G01*
G75*
%ADD10C,0.0100*%
%ADD11C,0.0150*%
%ADD12R,0.0551X0.1299*%
%ADD13R,0.0945X0.1102*%
%ADD14O,0.0236X0.0689*%
%ADD15O,0.1680X0.0840*%
%ADD16O,0.0840X0.1680*%
%ADD17R,0.0551X0.0591*%
%ADD18R,0.0560X0.0400*%
%ADD19R,0.0591X0.0551*%
%ADD20R,0.0240X0.0870*%
%ADD21R,0.0394X0.0236*%
%ADD22R,0.0433X0.0669*%
%ADD23R,0.0669X0.0433*%
%ADD24O,0.0118X0.0669*%
%ADD25R,0.0335X0.0157*%
%ADD26C,0.0200*%
%ADD27C,0.0120*%
%ADD28C,0.0300*%
%ADD29C,0.0350*%
%ADD30C,0.0591*%
%ADD31R,0.0591X0.0591*%
%ADD32R,0.0591X0.0591*%
%ADD33C,0.0500*%
G36*
X036300Y037500D02*
X034100D01*
Y039700D01*
X034100Y039700D01*
X036300Y037500D01*
D02*
G37*
D10*
X037720Y049149D02*
G03*
X038274Y048926I000554J000577D01*
G01*
X039779Y050185D02*
G03*
X039583Y050381I-000655J-000459D01*
G01*
X039232Y050519D02*
G03*
X039124Y050526I-000108J-000793D01*
G01*
X039124Y048926D02*
G03*
X039924Y049701I000000J000800D01*
G01*
X039232Y050519D02*
G03*
X039124Y050526I-000108J-000793D01*
G01*
X038274D02*
G03*
X037720Y049149I000000J-000800D01*
G01*
X039924Y049701D02*
G03*
X039779Y050185I-000800J000025D01*
G01*
X048977Y045310D02*
Y045330D01*
X048970Y045310D02*
X048977D01*
X037757Y047156D02*
X038356Y046557D01*
X036907Y047156D02*
X037757D01*
X051500Y049180D02*
X051510Y049170D01*
X036000Y044000D02*
X036209D01*
X050121Y051712D02*
Y051960D01*
X051052Y043360D02*
X051080Y043389D01*
X045500Y050107D02*
Y050811D01*
X047500Y050851D02*
X047520Y050831D01*
X039124Y048926D02*
X039124Y048926D01*
X043094Y042826D02*
X043137Y042783D01*
X047180Y054024D02*
Y054108D01*
X051490Y048670D02*
X051510Y048690D01*
X048977Y047166D02*
X049000Y047189D01*
X044900Y052790D02*
Y052850D01*
Y052790D02*
X044960Y052720D01*
X046000Y050811D02*
X046040Y050851D01*
X047500Y050811D02*
X047520Y050831D01*
X046490Y050821D02*
X046500Y050811D01*
X038524Y047669D02*
X038553Y047640D01*
Y046557D02*
Y047640D01*
X038974Y050617D02*
Y052526D01*
X038700Y052676D02*
X038724Y052700D01*
X038947Y046557D02*
Y047149D01*
X039618Y047820D01*
X039751D01*
X038947Y044053D02*
Y044943D01*
X043130Y042776D02*
X043137Y042783D01*
X048500Y047189D02*
Y047471D01*
X048974Y053276D02*
X049130Y053120D01*
X039198Y042782D02*
X039230Y042750D01*
X041850Y045826D02*
X041974D01*
X035816Y055766D02*
X035900Y055850D01*
X051060Y045330D02*
X051063D01*
X049460Y041560D02*
X049640Y041380D01*
X049214Y041560D02*
X049460D01*
X049194Y041580D02*
X049214Y041560D01*
X035826Y053630D02*
X035970Y053774D01*
X036560Y054110D02*
X036604Y054154D01*
X047162Y054108D02*
X047180D01*
X049400Y053650D02*
X049744Y053306D01*
X049900D01*
X045980Y047169D02*
X046000Y047189D01*
X046980Y047169D02*
X047000Y047189D01*
X038724Y049726D02*
Y051802D01*
X038356Y039000D02*
X038500Y038856D01*
X040356Y039000D02*
X040500Y038856D01*
X042356Y039000D02*
X042500Y038856D01*
X044356Y039000D02*
X044500Y038856D01*
X048446Y041836D02*
Y041839D01*
Y041836D02*
X049194D01*
X048028Y040768D02*
X048110Y040850D01*
D11*
X037720Y049149D02*
G03*
X038274Y048926I000554J000577D01*
G01*
X039583Y050381D02*
G03*
X039232Y050519I-000459J-000655D01*
G01*
X039779Y050185D02*
G03*
X039583Y050381I-000655J-000459D01*
G01*
X039124Y048926D02*
G03*
X039924Y049701I000000J000800D01*
G01*
X038274Y050526D02*
G03*
X037720Y049149I000000J-000800D01*
G01*
X039924Y049701D02*
G03*
X039779Y050185I-000800J000025D01*
G01*
X052000Y046700D02*
Y052140D01*
X051790Y046490D02*
X052000Y046700D01*
X051460Y052680D02*
X052000Y052140D01*
X051500Y047189D02*
Y048000D01*
X050965Y048535D02*
X051500Y048000D01*
X050965Y048535D02*
Y049185D01*
X047970Y042980D02*
X051480D01*
X045000Y045950D02*
X047970Y042980D01*
X051480D02*
X052250Y043750D01*
X045980Y045820D02*
Y047169D01*
X046980Y045800D02*
Y047169D01*
X048977Y045330D02*
Y047166D01*
X050500Y045700D02*
X051399D01*
X049500Y046700D02*
X050500Y045700D01*
X049500Y046700D02*
Y047218D01*
X049798Y043398D02*
X050000Y043600D01*
X048970Y043398D02*
X049798D01*
X050000Y043600D02*
X050212Y043389D01*
X051080D01*
X037943Y044943D02*
X038356D01*
X036000Y043000D02*
X037943Y044943D01*
X037350Y056400D02*
X037900Y055850D01*
X036700Y056400D02*
X037350D01*
X036450Y056150D02*
X036700Y056400D01*
X036450Y054754D02*
Y056150D01*
Y054754D02*
X036604Y054600D01*
X051500Y049180D02*
Y050811D01*
X038274Y048926D02*
X038524D01*
X050121Y051960D02*
X050960D01*
X049500Y051090D02*
X050121Y051712D01*
X049500Y048471D02*
Y051090D01*
X047802Y052680D02*
X051460D01*
X045000Y050811D02*
Y051515D01*
X038974Y050617D02*
X039124Y050526D01*
X038274D02*
X038374D01*
X045000Y045950D02*
Y047189D01*
X051510Y048690D02*
Y049170D01*
X047162Y053320D02*
X047802Y052680D01*
X051200Y046490D02*
X051790D01*
X051000Y046690D02*
X051200Y046490D01*
X051000Y046690D02*
Y047189D01*
X044960Y052720D02*
X046870D01*
X047170Y052420D01*
X048160D01*
X048500Y052080D01*
Y050811D02*
Y052080D01*
X046040Y050851D02*
Y051660D01*
X048000Y050811D02*
Y051515D01*
X047500Y050851D02*
Y051970D01*
X047000Y050811D02*
Y051515D01*
X046490Y050821D02*
Y052260D01*
X038524Y048926D02*
X039124D01*
X038374Y050526D02*
Y051126D01*
X038224Y051276D02*
X038374Y051126D01*
X038224Y051276D02*
Y051802D01*
X038824Y052676D02*
X038974Y052526D01*
X038700Y052676D02*
X038824D01*
X038224Y051802D02*
Y052476D01*
X038424Y052676D01*
X038700D01*
X038724Y052700D02*
Y053856D01*
X049194Y041889D02*
Y041990D01*
X039751Y047820D02*
X041968D01*
X041974Y047826D01*
X048768Y041436D02*
X048880Y041324D01*
X048768Y041436D02*
Y041467D01*
X048678Y041558D02*
X048768Y041467D01*
X048646Y041558D02*
X048678D01*
X048624Y041580D02*
X048646Y041558D01*
X048446Y041580D02*
X048624D01*
X048500Y047471D02*
X049500Y048471D01*
X048306Y053276D02*
X048974D01*
X048446Y041016D02*
Y041324D01*
X038324Y042782D02*
X039198D01*
X035970Y053774D02*
Y054020D01*
X036060Y054110D01*
X036560D01*
X036604Y054154D02*
Y054600D01*
X047180Y054024D02*
X048306D01*
X049094Y053650D02*
X049400D01*
X045500Y046485D02*
Y047189D01*
X046500Y046485D02*
Y047189D01*
X049194Y040894D02*
Y041246D01*
X048880Y041324D02*
X049194D01*
D12*
X047452Y039300D02*
D03*
X048948D02*
D03*
D13*
X051399Y045700D02*
D03*
X048801D02*
D03*
D14*
X045000Y047218D02*
D03*
X045500D02*
D03*
X046000D02*
D03*
X046500D02*
D03*
X047000D02*
D03*
X047500D02*
D03*
X048000D02*
D03*
X048500D02*
D03*
X049000D02*
D03*
X049500D02*
D03*
X050000D02*
D03*
X050500D02*
D03*
X051000D02*
D03*
X051500D02*
D03*
X045000Y050781D02*
D03*
X045500D02*
D03*
X046000D02*
D03*
X046500D02*
D03*
X047000D02*
D03*
X047500D02*
D03*
X048000D02*
D03*
X048500D02*
D03*
X049000D02*
D03*
X049500D02*
D03*
X050000D02*
D03*
X050500D02*
D03*
X051000D02*
D03*
X051500D02*
D03*
D15*
X038724Y049726D02*
D03*
D16*
X036250Y049850D02*
D03*
D17*
X043894Y043850D02*
D03*
X043106D02*
D03*
X043894Y042900D02*
D03*
X043106D02*
D03*
X043918Y047826D02*
D03*
X043130D02*
D03*
X035816Y054600D02*
D03*
X036604D02*
D03*
X035826Y053630D02*
D03*
X036614D02*
D03*
D18*
X036907Y046402D02*
D03*
Y047156D02*
D03*
X036034Y046776D02*
D03*
D19*
X037450Y042756D02*
D03*
Y043544D02*
D03*
X038324Y043570D02*
D03*
Y042782D02*
D03*
X038500Y038856D02*
D03*
Y039644D02*
D03*
X040500Y038856D02*
D03*
Y039644D02*
D03*
X047162Y054108D02*
D03*
Y053320D02*
D03*
X046300Y053306D02*
D03*
Y054094D02*
D03*
X049900Y053306D02*
D03*
Y054094D02*
D03*
X042500Y038856D02*
D03*
Y039644D02*
D03*
X044500Y038856D02*
D03*
Y039644D02*
D03*
D20*
X038224Y051802D02*
D03*
Y053856D02*
D03*
X037724Y051802D02*
D03*
X038724D02*
D03*
X039224D02*
D03*
X037724Y053856D02*
D03*
X038724D02*
D03*
X039224D02*
D03*
D21*
X048306Y054024D02*
D03*
Y053276D02*
D03*
X049094Y053650D02*
D03*
D22*
X049058Y051960D02*
D03*
X050121D02*
D03*
D23*
X051080Y043389D02*
D03*
Y044451D02*
D03*
X048970Y043398D02*
D03*
Y044461D02*
D03*
X047200Y041831D02*
D03*
Y040768D02*
D03*
X040310Y044988D02*
D03*
Y046052D02*
D03*
Y053582D02*
D03*
Y052519D02*
D03*
D24*
X038356Y044943D02*
D03*
X038553D02*
D03*
X038750D02*
D03*
X038947D02*
D03*
X039144D02*
D03*
X038356Y046557D02*
D03*
X038553D02*
D03*
X038750D02*
D03*
X038947D02*
D03*
X039144D02*
D03*
D25*
X048446Y041836D02*
D03*
Y041580D02*
D03*
Y041324D02*
D03*
X049194D02*
D03*
Y041580D02*
D03*
Y041836D02*
D03*
D26*
X051060Y044451D02*
Y045330D01*
X048970Y044461D02*
Y045310D01*
X040300Y051800D02*
X040380D01*
X049194Y041990D02*
X049700D01*
X038750Y045550D02*
X039470D01*
X037759D02*
X038750D01*
X038524Y047669D02*
Y048926D01*
X043894Y043850D02*
X043918Y043874D01*
X049000Y050429D02*
Y050811D01*
X038224Y053856D02*
Y054526D01*
X036900Y055850D02*
X038224Y054526D01*
X039894D01*
X040260Y054160D01*
X043900D01*
X040260Y053700D02*
Y054160D01*
X046234D02*
X046300Y054094D01*
X043900Y054160D02*
X046234D01*
X041974Y045826D02*
X042068Y045920D01*
X036034Y046166D02*
Y046776D01*
Y046166D02*
X036050Y046150D01*
X035938Y046070D02*
X036050Y046150D01*
X040298Y051802D02*
Y052559D01*
X040250Y052606D02*
X040298Y052559D01*
X039224Y051802D02*
X040298D01*
X035816Y054600D02*
Y055766D01*
X049640Y039992D02*
Y041380D01*
X037500Y039000D02*
X038356D01*
X039500D02*
X040356D01*
X041500D02*
X042356D01*
X043500D02*
X044356D01*
X048948Y039300D02*
X049640Y039992D01*
X047069Y041700D02*
X047139Y041770D01*
X047200Y041831D02*
Y041839D01*
X048225D01*
X047200Y040768D02*
X048028D01*
X046600Y040152D02*
X047452Y039300D01*
X046600Y040152D02*
Y041700D01*
X037450Y042450D02*
X037800Y042100D01*
X037450Y042450D02*
Y042756D01*
D27*
X039100Y047760D02*
Y048100D01*
X038750Y047410D02*
X039100Y047760D01*
X038750Y044943D02*
Y045550D01*
X039387Y046800D02*
X039409Y046822D01*
X038750Y046557D02*
Y047410D01*
X038553Y044450D02*
Y044943D01*
X038324Y044200D02*
X038553Y044450D01*
X039200Y046800D02*
X039387Y046800D01*
D28*
X049700Y041990D02*
X050100Y041590D01*
Y038900D02*
Y041590D01*
X051000Y039000D02*
Y040500D01*
X036209Y044000D02*
X037759Y045550D01*
X037450Y043530D02*
X038304D01*
X049000Y050811D02*
Y051770D01*
X036664Y053580D02*
X037260Y054176D01*
X039409Y046822D02*
X041974D01*
X040310Y046050D02*
X041626D01*
X037450Y043530D02*
Y043544D01*
X038304Y043530D02*
X038324Y043550D01*
Y043570D01*
X036250Y047813D02*
X036907Y047156D01*
X036250Y047813D02*
Y049850D01*
X041974Y047826D02*
X043130D01*
X039864Y045156D02*
X040300D01*
X036907Y046402D02*
X037759Y045550D01*
X039470D02*
X039864Y045156D01*
X040300D02*
X040630Y044826D01*
X041974D01*
X043874D01*
X037260Y054176D02*
Y054370D01*
X037416Y054526D01*
X038224D01*
X047481Y048910D02*
X049000Y050429D01*
X043900Y054160D02*
X044660Y054920D01*
X049770D01*
X043900Y054160D02*
X043918Y054142D01*
X049900Y055050D02*
Y055850D01*
X049770Y054920D02*
X049900Y055050D01*
X040174Y042826D02*
X041974D01*
X038947Y044053D02*
X040174Y042826D01*
X041974D02*
X043094D01*
X039236Y044943D02*
X039450Y044729D01*
Y044250D02*
Y044729D01*
Y044250D02*
X039874Y043826D01*
X041974D01*
X043094D01*
X043106Y043850D01*
X048290Y040860D02*
X048446Y041016D01*
X041974Y046822D02*
Y046826D01*
X041626Y046050D02*
X041850Y045826D01*
X049900Y054094D02*
X050900Y055094D01*
Y055850D01*
X047148Y053306D02*
X047162Y053320D01*
X046300Y053306D02*
X047148D01*
X038324Y043570D02*
Y044200D01*
X047139Y041770D02*
X047200Y041831D01*
X046600Y041700D02*
X047069D01*
X051000Y040500D02*
X052250Y041750D01*
X037800Y042100D02*
X038200Y041700D01*
X046600D01*
D29*
X048800Y042550D02*
X051750D01*
X043918Y043874D02*
Y047826D01*
Y048910D02*
X047481D01*
X043918Y047826D02*
Y048910D01*
Y054142D01*
X043894Y042900D02*
Y043850D01*
X052100Y042900D02*
X052250Y042750D01*
X051750Y042550D02*
X052100Y042900D01*
X044238Y042550D02*
X048800D01*
X049000Y040700D02*
X049194Y040894D01*
X043894Y042206D02*
Y042300D01*
Y042900D01*
Y042206D02*
X044238Y042550D01*
X038500Y040400D02*
X039300Y041200D01*
X038500Y039644D02*
Y040400D01*
X040500Y039644D02*
Y041100D01*
X040600Y041200D01*
X039300D02*
X040600D01*
X042500Y039644D02*
Y041000D01*
X042700Y041200D01*
X040600D02*
X042700D01*
X043900D01*
X044500Y039644D02*
Y040600D01*
X043900Y041200D02*
X044500Y040600D01*
D30*
X043500Y040000D02*
D03*
X041500D02*
D03*
X039500D02*
D03*
X037500D02*
D03*
X052250Y042750D02*
D03*
Y041750D02*
D03*
Y040750D02*
D03*
Y039750D02*
D03*
Y038750D02*
D03*
X051000Y039000D02*
D03*
X041974Y046826D02*
D03*
Y047826D02*
D03*
Y045826D02*
D03*
Y044826D02*
D03*
Y043826D02*
D03*
Y042826D02*
D03*
X036000Y045000D02*
D03*
Y044000D02*
D03*
X036900Y055850D02*
D03*
X037900D02*
D03*
X038900D02*
D03*
X039900D02*
D03*
X040900D02*
D03*
X041900D02*
D03*
X042900D02*
D03*
X043900D02*
D03*
X044900D02*
D03*
X045900D02*
D03*
X046900D02*
D03*
X047900D02*
D03*
X048900D02*
D03*
X049900D02*
D03*
X050900D02*
D03*
D31*
X043500Y039000D02*
D03*
X041500D02*
D03*
X039500D02*
D03*
X037500D02*
D03*
X052250Y043750D02*
D03*
X041974Y048826D02*
D03*
X036000Y043000D02*
D03*
D32*
X050000Y039000D02*
D03*
X035900Y055850D02*
D03*
D33*
X035200Y037900D02*
D03*
X034500Y038600D02*
D03*
Y037900D02*
D03*
X046980Y045800D02*
D03*
X045980Y045820D02*
D03*
X050000Y043600D02*
D03*
X040300Y051800D02*
D03*
X039100Y048100D02*
D03*
X050965Y049185D02*
D03*
X051400Y048800D02*
D03*
X050960Y051960D02*
D03*
X045500Y050107D02*
D03*
X045000Y051515D02*
D03*
X046040Y051660D02*
D03*
X048000Y051515D02*
D03*
X047500Y051970D02*
D03*
X047000Y051515D02*
D03*
X046490Y052260D02*
D03*
X049130Y053120D02*
D03*
X036050Y046150D02*
D03*
X045500Y046485D02*
D03*
X044900Y052850D02*
D03*
X046500Y046485D02*
D03*
X048110Y040850D02*
D03*
X048800Y042550D02*
D03*
X049000Y040700D02*
D03*
X043894Y042300D02*
D03*
X043900Y041200D02*
D03*
X037800Y042100D02*
D03*
X039230Y042750D02*
D03*
M02*
