G04 Layer_Color=128*
%FSAX24Y24*%
%MOIN*%
G70*
G01*
G75*
%ADD65C,0.0050*%
D65*
X043323Y040000D02*
X043677D01*
X043500Y039823D02*
Y040177D01*
X043323Y039000D02*
X043677D01*
X043500Y038823D02*
Y039177D01*
X041323Y040000D02*
X041677D01*
X041500Y039823D02*
Y040177D01*
X041323Y039000D02*
X041677D01*
X041500Y038823D02*
Y039177D01*
X039323Y040000D02*
X039677D01*
X039500Y039823D02*
Y040177D01*
X039323Y039000D02*
X039677D01*
X039500Y038823D02*
Y039177D01*
X037323Y040000D02*
X037677D01*
X037500Y039823D02*
Y040177D01*
X037323Y039000D02*
X037677D01*
X037500Y038823D02*
Y039177D01*
X052073Y043750D02*
X052427D01*
X052250Y043573D02*
Y043927D01*
X052073Y042750D02*
X052427D01*
X052250Y042573D02*
Y042927D01*
X052073Y041750D02*
X052427D01*
X052250Y041573D02*
Y041927D01*
X052073Y040750D02*
X052427D01*
X052250Y040573D02*
Y040927D01*
X052073Y039750D02*
X052427D01*
X052250Y039573D02*
Y039927D01*
X052073Y038750D02*
X052427D01*
X052250Y038573D02*
Y038927D01*
X049823Y039000D02*
X050177D01*
X050000Y038823D02*
Y039177D01*
X050823Y039000D02*
X051177D01*
X051000Y038823D02*
Y039177D01*
X041797Y046826D02*
X042151D01*
X041974Y046649D02*
Y047003D01*
X041797Y048826D02*
X042151D01*
X041974Y048649D02*
Y049003D01*
X041797Y047826D02*
X042151D01*
X041974Y047649D02*
Y048003D01*
X041797Y045826D02*
X042151D01*
X041974Y045649D02*
Y046003D01*
X041797Y044826D02*
X042151D01*
X041974Y044649D02*
Y045003D01*
X041797Y043826D02*
X042151D01*
X041974Y043649D02*
Y044003D01*
X041797Y042826D02*
X042151D01*
X041974Y042649D02*
Y043003D01*
X035823Y045000D02*
X036177D01*
X036000Y044823D02*
Y045177D01*
X035823Y044000D02*
X036177D01*
X036000Y043823D02*
Y044177D01*
X035823Y043000D02*
X036177D01*
X036000Y042823D02*
Y043177D01*
X035723Y055850D02*
X036077D01*
X035900Y055673D02*
Y056027D01*
X036723Y055850D02*
X037077D01*
X036900Y055673D02*
Y056027D01*
X037723Y055850D02*
X038077D01*
X037900Y055673D02*
Y056027D01*
X038723Y055850D02*
X039077D01*
X038900Y055673D02*
Y056027D01*
X039723Y055850D02*
X040077D01*
X039900Y055673D02*
Y056027D01*
X040723Y055850D02*
X041077D01*
X040900Y055673D02*
Y056027D01*
X041723Y055850D02*
X042077D01*
X041900Y055673D02*
Y056027D01*
X042723Y055850D02*
X043077D01*
X042900Y055673D02*
Y056027D01*
X043723Y055850D02*
X044077D01*
X043900Y055673D02*
Y056027D01*
X044723Y055850D02*
X045077D01*
X044900Y055673D02*
Y056027D01*
X045723Y055850D02*
X046077D01*
X045900Y055673D02*
Y056027D01*
X046723Y055850D02*
X047077D01*
X046900Y055673D02*
Y056027D01*
X047723Y055850D02*
X048077D01*
X047900Y055673D02*
Y056027D01*
X048723Y055850D02*
X049077D01*
X048900Y055673D02*
Y056027D01*
X049723Y055850D02*
X050077D01*
X049900Y055673D02*
Y056027D01*
X050723Y055850D02*
X051077D01*
X050900Y055673D02*
Y056027D01*
X035060Y037900D02*
X035340D01*
X035200Y037760D02*
Y038040D01*
X034360Y038600D02*
X034640D01*
X034500Y038460D02*
Y038740D01*
X034360Y037900D02*
X034640D01*
X034500Y037760D02*
Y038040D01*
X046840Y045800D02*
X047120D01*
X046980Y045660D02*
Y045940D01*
X045840Y045820D02*
X046120D01*
X045980Y045680D02*
Y045960D01*
X049860Y043600D02*
X050140D01*
X050000Y043460D02*
Y043740D01*
X040160Y051800D02*
X040440D01*
X040300Y051660D02*
Y051940D01*
X038960Y048100D02*
X039240D01*
X039100Y047960D02*
Y048240D01*
X050825Y049185D02*
X051105D01*
X050965Y049045D02*
Y049325D01*
X051260Y048800D02*
X051540D01*
X051400Y048660D02*
Y048940D01*
X050820Y051960D02*
X051100D01*
X050960Y051820D02*
Y052100D01*
X045360Y050107D02*
X045640D01*
X045500Y049967D02*
Y050247D01*
X044860Y051515D02*
X045140D01*
X045000Y051375D02*
Y051655D01*
X045900Y051660D02*
X046180D01*
X046040Y051520D02*
Y051800D01*
X047860Y051515D02*
X048140D01*
X048000Y051375D02*
Y051655D01*
X047360Y051970D02*
X047640D01*
X047500Y051830D02*
Y052110D01*
X046860Y051515D02*
X047140D01*
X047000Y051375D02*
Y051655D01*
X046350Y052260D02*
X046630D01*
X046490Y052120D02*
Y052400D01*
X048990Y053120D02*
X049270D01*
X049130Y052980D02*
Y053260D01*
X035910Y046150D02*
X036190D01*
X036050Y046010D02*
Y046290D01*
X045360Y046485D02*
X045640D01*
X045500Y046345D02*
Y046625D01*
X044760Y052850D02*
X045040D01*
X044900Y052710D02*
Y052990D01*
X046360Y046485D02*
X046640D01*
X046500Y046345D02*
Y046625D01*
X047970Y040850D02*
X048250D01*
X048110Y040710D02*
Y040990D01*
X048660Y042550D02*
X048940D01*
X048800Y042410D02*
Y042690D01*
X048860Y040700D02*
X049140D01*
X049000Y040560D02*
Y040840D01*
X043754Y042300D02*
X044034D01*
X043894Y042160D02*
Y042440D01*
X043760Y041200D02*
X044040D01*
X043900Y041060D02*
Y041340D01*
X037660Y042100D02*
X037940D01*
X037800Y041960D02*
Y042240D01*
X039090Y042750D02*
X039370D01*
X039230Y042610D02*
Y042890D01*
M02*
