G04 Layer_Color=2752767*
%FSAX24Y24*%
%MOIN*%
G70*
G01*
G75*
%ADD65C,0.0050*%
%ADD66C,0.0067*%
D65*
X043300Y039800D02*
Y040200D01*
X043700D01*
Y039800D01*
X043300D01*
Y038800D02*
Y039200D01*
X043700D01*
Y038800D01*
X043300D01*
X041300Y039800D02*
Y040200D01*
X041700D01*
Y039800D01*
X041300D01*
Y038800D02*
Y039200D01*
X041700D01*
Y038800D01*
X041300D01*
X039300Y039800D02*
Y040200D01*
X039700D01*
Y039800D01*
X039300D01*
Y038800D02*
Y039200D01*
X039700D01*
Y038800D01*
X039300D01*
X037300Y039800D02*
Y040200D01*
X037700D01*
Y039800D01*
X037300D01*
Y038800D02*
Y039200D01*
X037700D01*
Y038800D01*
X037300D01*
X052050Y043550D02*
Y043950D01*
X052450D01*
Y043550D01*
X052050D01*
Y042550D02*
Y042950D01*
X052450D01*
Y042550D01*
X052050D01*
Y041550D02*
Y041950D01*
X052450D01*
Y041550D01*
X052050D01*
Y040550D02*
Y040950D01*
X052450D01*
Y040550D01*
X052050D01*
Y039550D02*
Y039950D01*
X052450D01*
Y039550D01*
X052050D01*
Y038550D02*
Y038950D01*
X052450D01*
Y038550D01*
X052050D01*
X049800Y038800D02*
Y039200D01*
X050200D01*
Y038800D01*
X049800D01*
X050800D02*
Y039200D01*
X051200D01*
Y038800D01*
X050800D01*
X041774Y046626D02*
Y047026D01*
X042174D01*
Y046626D01*
X041774D01*
Y048626D02*
Y049026D01*
X042174D01*
Y048626D01*
X041774D01*
Y047626D02*
Y048026D01*
X042174D01*
Y047626D01*
X041774D01*
Y045626D02*
Y046026D01*
X042174D01*
Y045626D01*
X041774D01*
Y044626D02*
Y045026D01*
X042174D01*
Y044626D01*
X041774D01*
Y043626D02*
Y044026D01*
X042174D01*
Y043626D01*
X041774D01*
Y042626D02*
Y043026D01*
X042174D01*
Y042626D01*
X041774D01*
X035800Y044800D02*
Y045200D01*
X036200D01*
Y044800D01*
X035800D01*
Y043800D02*
Y044200D01*
X036200D01*
Y043800D01*
X035800D01*
Y042800D02*
Y043200D01*
X036200D01*
Y042800D01*
X035800D01*
X035700Y055650D02*
Y056050D01*
X036100D01*
Y055650D01*
X035700D01*
X036700D02*
Y056050D01*
X037100D01*
Y055650D01*
X036700D01*
X037700D02*
Y056050D01*
X038100D01*
Y055650D01*
X037700D01*
X038700D02*
Y056050D01*
X039100D01*
Y055650D01*
X038700D01*
X039700D02*
Y056050D01*
X040100D01*
Y055650D01*
X039700D01*
X040700D02*
Y056050D01*
X041100D01*
Y055650D01*
X040700D01*
X041700D02*
Y056050D01*
X042100D01*
Y055650D01*
X041700D01*
X042700D02*
Y056050D01*
X043100D01*
Y055650D01*
X042700D01*
X043700D02*
Y056050D01*
X044100D01*
Y055650D01*
X043700D01*
X044700D02*
Y056050D01*
X045100D01*
Y055650D01*
X044700D01*
X045700D02*
Y056050D01*
X046100D01*
Y055650D01*
X045700D01*
X046700D02*
Y056050D01*
X047100D01*
Y055650D01*
X046700D01*
X047700D02*
Y056050D01*
X048100D01*
Y055650D01*
X047700D01*
X048700D02*
Y056050D01*
X049100D01*
Y055650D01*
X048700D01*
X049700D02*
Y056050D01*
X050100D01*
Y055650D01*
X049700D01*
X050700D02*
Y056050D01*
X051100D01*
Y055650D01*
X050700D01*
D66*
X035400Y037900D02*
G03*
X035400Y037900I-000200J000000D01*
G01*
X034700Y038600D02*
G03*
X034700Y038600I-000200J000000D01*
G01*
Y037900D02*
G03*
X034700Y037900I-000200J000000D01*
G01*
X047180Y045800D02*
G03*
X047180Y045800I-000200J000000D01*
G01*
X046180Y045820D02*
G03*
X046180Y045820I-000200J000000D01*
G01*
X050200Y043600D02*
G03*
X050200Y043600I-000200J000000D01*
G01*
X040500Y051800D02*
G03*
X040500Y051800I-000200J000000D01*
G01*
X039300Y048100D02*
G03*
X039300Y048100I-000200J000000D01*
G01*
X051165Y049185D02*
G03*
X051165Y049185I-000200J000000D01*
G01*
X051600Y048800D02*
G03*
X051600Y048800I-000200J000000D01*
G01*
X051160Y051960D02*
G03*
X051160Y051960I-000200J000000D01*
G01*
X045700Y050107D02*
G03*
X045700Y050107I-000200J000000D01*
G01*
X045200Y051515D02*
G03*
X045200Y051515I-000200J000000D01*
G01*
X046240Y051660D02*
G03*
X046240Y051660I-000200J000000D01*
G01*
X048200Y051515D02*
G03*
X048200Y051515I-000200J000000D01*
G01*
X047700Y051970D02*
G03*
X047700Y051970I-000200J000000D01*
G01*
X047200Y051515D02*
G03*
X047200Y051515I-000200J000000D01*
G01*
X046690Y052260D02*
G03*
X046690Y052260I-000200J000000D01*
G01*
X049330Y053120D02*
G03*
X049330Y053120I-000200J000000D01*
G01*
X036250Y046150D02*
G03*
X036250Y046150I-000200J000000D01*
G01*
X045700Y046485D02*
G03*
X045700Y046485I-000200J000000D01*
G01*
X045100Y052850D02*
G03*
X045100Y052850I-000200J000000D01*
G01*
X046700Y046485D02*
G03*
X046700Y046485I-000200J000000D01*
G01*
X048310Y040850D02*
G03*
X048310Y040850I-000200J000000D01*
G01*
X049000Y042550D02*
G03*
X049000Y042550I-000200J000000D01*
G01*
X049200Y040700D02*
G03*
X049200Y040700I-000200J000000D01*
G01*
X044094Y042300D02*
G03*
X044094Y042300I-000200J000000D01*
G01*
X044100Y041200D02*
G03*
X044100Y041200I-000200J000000D01*
G01*
X038000Y042100D02*
G03*
X038000Y042100I-000200J000000D01*
G01*
X039430Y042750D02*
G03*
X039430Y042750I-000200J000000D01*
G01*
M02*
