M48
;Layer_Color=9474304
;FILE_FORMAT=2:4
INCH,LZ
;TYPE=PLATED
T1F00S00C0.0280
T2F00S00C0.0354
%
T01
X0345Y0379
X0352
X0345Y0386
X0378Y0421
X03923Y04275
X043894Y0423
X0439Y0412
X04598Y04582
X0455Y046485
X0465
X03605Y04615
X04698Y0458
X0488Y04255
X049Y0407
X04811Y04085
X05Y0436
X050965Y049185
X0514Y0488
X05096Y05196
X04913Y05312
X048Y051515
X0475Y05197
X047Y051515
X04604Y05166
X04649Y05226
X0449Y05285
X045Y051515
X0455Y050107
X0403Y0518
X0391Y0481
T02
X0375Y039
Y04
X0395
Y039
X0415
Y04
X0435
Y039
X041974Y042826
Y043826
Y044826
Y045826
Y046826
X036Y045
Y044
Y043
X05225Y04275
Y04375
Y04175
Y04075
Y03975
Y03875
X051Y039
X05
X0499Y05585
X0489
X0479
X0469
X0509
X0459
X0449
X0439
X0429
X0419
X0409
X0399
X0389
X0379
X0369
X0359
X041974Y048826
Y047826
M30
