G04 Layer_Color=32896*
%FSAX24Y24*%
%MOIN*%
G70*
G01*
G75*
%ADD26C,0.0200*%
%ADD37C,0.0079*%
D26*
X052067Y053600D02*
X052300Y053833D01*
Y054067D01*
X052067Y054300D01*
X051250Y054067D02*
X051600D01*
X051717Y053950D01*
Y053717D01*
X051600Y053600D01*
X051250D01*
X051017D02*
X050784Y053833D01*
Y054067D01*
X051017Y054300D01*
X049268Y053600D02*
X049734D01*
X049268Y054067D01*
Y054183D01*
X049384Y054300D01*
X049618D01*
X049734Y054183D01*
X049034D02*
X048918Y054300D01*
X048685D01*
X048568Y054183D01*
Y053717D01*
X048685Y053600D01*
X048918D01*
X049034Y053717D01*
Y054183D01*
X048335Y053600D02*
X048101D01*
X048218D01*
Y054300D01*
X048335Y054183D01*
X047285Y054300D02*
X047751D01*
Y053950D01*
X047518Y054067D01*
X047402D01*
X047285Y053950D01*
Y053717D01*
X047402Y053600D01*
X047635D01*
X047751Y053717D01*
X046352Y054300D02*
Y053600D01*
X046002D01*
X045885Y053717D01*
Y054183D01*
X046002Y054300D01*
X046352D01*
X045536Y054067D02*
X045302D01*
X045186Y053950D01*
Y053600D01*
X045536D01*
X045652Y053717D01*
X045536Y053833D01*
X045186D01*
X044952Y054067D02*
X044719Y053600D01*
X044486Y054067D01*
X044253Y053600D02*
X044019D01*
X044136D01*
Y054067D01*
X044253D01*
X043203Y054300D02*
Y053600D01*
X043553D01*
X043669Y053717D01*
Y053950D01*
X043553Y054067D01*
X043203D01*
X042620Y053600D02*
X042853D01*
X042970Y053717D01*
Y053950D01*
X042853Y054067D01*
X042620D01*
X042503Y053950D01*
Y053833D01*
X042970D01*
X041570Y054300D02*
Y053600D01*
X041220D01*
X041104Y053717D01*
Y053833D01*
X041220Y053950D01*
X041570D01*
X041220D01*
X041104Y054067D01*
Y054183D01*
X041220Y054300D01*
X041570D01*
X040754Y053600D02*
X040520D01*
X040404Y053717D01*
Y053950D01*
X040520Y054067D01*
X040754D01*
X040870Y053950D01*
Y053717D01*
X040754Y053600D01*
X040171Y054067D02*
Y053600D01*
Y053833D01*
X040054Y053950D01*
X039937Y054067D01*
X039821D01*
X039354Y054183D02*
Y054067D01*
X039471D01*
X039238D01*
X039354D01*
Y053717D01*
X039238Y053600D01*
X038771D02*
X038538D01*
X038421Y053717D01*
Y053950D01*
X038538Y054067D01*
X038771D01*
X038888Y053950D01*
Y053717D01*
X038771Y053600D01*
X038188D02*
X037955D01*
X038071D01*
Y054300D01*
X038188D01*
X037488Y054067D02*
X037255D01*
X037138Y053950D01*
Y053600D01*
X037488D01*
X037605Y053717D01*
X037488Y053833D01*
X037138D01*
X036905Y053600D02*
Y054067D01*
X036788D01*
X036672Y053950D01*
Y053600D01*
Y053950D01*
X036555Y054067D01*
X036438Y053950D01*
Y053600D01*
X036205D02*
X035972D01*
X036089D01*
Y054067D01*
X036205D01*
X052300Y052400D02*
Y053100D01*
X051950D01*
X051833Y052983D01*
Y052750D01*
X051950Y052633D01*
X052300D01*
X051600Y053100D02*
Y052400D01*
Y052750D01*
X051484Y052867D01*
X051250D01*
X051134Y052750D01*
Y052400D01*
X050900Y052750D02*
X050434D01*
X050201Y052400D02*
Y053100D01*
X049967Y052867D01*
X049734Y053100D01*
Y052400D01*
X049151D02*
X049384D01*
X049501Y052517D01*
Y052750D01*
X049384Y052867D01*
X049151D01*
X049034Y052750D01*
Y052633D01*
X049501D01*
X048685Y052983D02*
Y052867D01*
X048801D01*
X048568D01*
X048685D01*
Y052517D01*
X048568Y052400D01*
X047868D02*
X048101D01*
X048218Y052517D01*
Y052750D01*
X048101Y052867D01*
X047868D01*
X047751Y052750D01*
Y052633D01*
X048218D01*
X047518Y052867D02*
Y052400D01*
Y052633D01*
X047402Y052750D01*
X047285Y052867D01*
X047168D01*
X045652Y053100D02*
Y052400D01*
X046002D01*
X046119Y052517D01*
Y052750D01*
X046002Y052867D01*
X045652D01*
X044952Y053100D02*
Y052400D01*
X045302D01*
X045419Y052517D01*
Y052750D01*
X045302Y052867D01*
X044952D01*
X044602D02*
X044369D01*
X044253Y052750D01*
Y052400D01*
X044602D01*
X044719Y052517D01*
X044602Y052633D01*
X044253D01*
X044019Y052867D02*
X043786Y052400D01*
X043553Y052867D01*
X043320Y052400D02*
X043086D01*
X043203D01*
Y052867D01*
X043320D01*
X042270Y053100D02*
Y052400D01*
X042620D01*
X042736Y052517D01*
Y052750D01*
X042620Y052867D01*
X042270D01*
X041687Y052400D02*
X041920D01*
X042037Y052517D01*
Y052750D01*
X041920Y052867D01*
X041687D01*
X041570Y052750D01*
Y052633D01*
X042037D01*
X041337Y053100D02*
Y052400D01*
X040987D01*
X040870Y052517D01*
Y052633D01*
Y052750D01*
X040987Y052867D01*
X041337D01*
X040520Y052400D02*
X040287D01*
X040171Y052517D01*
Y052750D01*
X040287Y052867D01*
X040520D01*
X040637Y052750D01*
Y052517D01*
X040520Y052400D01*
X039937Y052867D02*
Y052400D01*
Y052633D01*
X039821Y052750D01*
X039704Y052867D01*
X039587D01*
X039238Y052400D02*
Y052517D01*
X039121D01*
Y052400D01*
X039238D01*
X038654D02*
X038421D01*
X038538D01*
Y052867D01*
X038654D01*
X037955Y052983D02*
Y052867D01*
X038071D01*
X037838D01*
X037955D01*
Y052517D01*
X037838Y052400D01*
D37*
X047885Y038690D02*
X048515D01*
X047885Y039910D02*
X048515D01*
M02*
