G04 Layer_Color=65535*
%FSAX24Y24*%
%MOIN*%
G70*
G01*
G75*
%ADD10C,0.0100*%
%ADD26C,0.0200*%
%ADD34C,0.0098*%
%ADD35C,0.0236*%
%ADD36C,0.0130*%
%ADD37C,0.0079*%
%ADD38C,0.0060*%
%ADD39C,0.0080*%
D10*
X037300Y050500D02*
X037600D01*
X037300D02*
X037600Y050800D01*
Y050500D02*
Y050800D01*
X036700Y051400D02*
X037600Y050500D01*
X036000Y051400D02*
X036700D01*
X034800Y046200D02*
X035500Y045500D01*
X039400Y052050D02*
Y053600D01*
X038212D02*
X038737D01*
X037550Y052050D02*
X039400D01*
X037550D02*
Y053600D01*
X038737D02*
X039400D01*
X037550D02*
X038212D01*
X035554Y039606D02*
Y039818D01*
X035342Y040030D01*
X035130Y040030D01*
X034706Y039606D01*
Y039394D01*
X034918Y039182D01*
X035130Y039182D01*
X035342Y039394D01*
X035130Y039606D01*
X035236Y038864D02*
X035872Y039500D01*
X035660Y038440D01*
X036297Y039076D01*
X036509Y038864D02*
X035872Y038228D01*
X036190Y037910D01*
X036403Y037910D01*
X036827Y038334D01*
Y038546D01*
X036509Y038864D01*
X049100Y038300D02*
X049500D01*
X049300Y038500D02*
Y038100D01*
X043200Y041200D02*
X043100Y041300D01*
X042900D01*
X042800Y041200D01*
Y041100D01*
X042900Y041000D01*
X043100D01*
X043200Y040900D01*
Y040800D01*
X043100Y040700D01*
X042900D01*
X042800Y040800D01*
X043400Y041300D02*
Y040700D01*
X043600Y040900D01*
X043800Y040700D01*
Y041300D01*
X044300Y040700D02*
Y041300D01*
X044000Y041000D01*
X044399D01*
X041100Y041200D02*
X041000Y041300D01*
X040800D01*
X040700Y041200D01*
Y041100D01*
X040800Y041000D01*
X041000D01*
X041100Y040900D01*
Y040800D01*
X041000Y040700D01*
X040800D01*
X040700Y040800D01*
X041300Y041300D02*
Y040700D01*
X041500Y040900D01*
X041700Y040700D01*
Y041300D01*
X041900Y041200D02*
X042000Y041300D01*
X042200D01*
X042299Y041200D01*
Y041100D01*
X042200Y041000D01*
X042100D01*
X042200D01*
X042299Y040900D01*
Y040800D01*
X042200Y040700D01*
X042000D01*
X041900Y040800D01*
X039000Y041200D02*
X038900Y041300D01*
X038700D01*
X038600Y041200D01*
Y041100D01*
X038700Y041000D01*
X038900D01*
X039000Y040900D01*
Y040800D01*
X038900Y040700D01*
X038700D01*
X038600Y040800D01*
X039200Y041300D02*
Y040700D01*
X039400Y040900D01*
X039600Y040700D01*
Y041300D01*
X040199Y040700D02*
X039800D01*
X040199Y041100D01*
Y041200D01*
X040100Y041300D01*
X039900D01*
X039800Y041200D01*
X037200D02*
X037100Y041300D01*
X036900D01*
X036800Y041200D01*
Y041100D01*
X036900Y041000D01*
X037100D01*
X037200Y040900D01*
Y040800D01*
X037100Y040700D01*
X036900D01*
X036800Y040800D01*
X037400Y041300D02*
Y040700D01*
X037600Y040900D01*
X037800Y040700D01*
Y041300D01*
X038000Y040700D02*
X038200D01*
X038100D01*
Y041300D01*
X038000Y041200D01*
X034200Y044200D02*
Y043867D01*
X034367Y043700D01*
X034533Y043867D01*
Y044200D01*
X034700D02*
Y043700D01*
X034950D01*
X035033Y043783D01*
Y044117D01*
X034950Y044200D01*
X034700D01*
X035200D02*
Y043700D01*
X035450D01*
X035533Y043783D01*
Y044117D01*
X035450Y044200D01*
X035200D01*
X034500Y043200D02*
X034667D01*
X034583D01*
Y042700D01*
X034500D01*
X034667D01*
X034917D02*
Y043200D01*
X035250Y042700D01*
Y043200D01*
X034433Y045217D02*
X034350Y045300D01*
X034183D01*
X034100Y045217D01*
Y044883D01*
X034183Y044800D01*
X034350D01*
X034433Y044883D01*
Y045050D01*
X034267D01*
X034600Y044800D02*
Y045300D01*
X034933Y044800D01*
Y045300D01*
X035100D02*
Y044800D01*
X035350D01*
X035433Y044883D01*
Y045217D01*
X035350Y045300D01*
X035100D01*
D26*
X034200Y051900D02*
X036800D01*
X038000Y050700D01*
X039600D01*
X040200Y050100D01*
Y049300D02*
Y050100D01*
X039600Y048700D02*
X040200Y049300D01*
X036100Y048700D02*
X039600D01*
X035700Y049100D02*
X036100Y048700D01*
X035700Y049100D02*
Y050000D01*
X035400Y050300D02*
X035700Y050000D01*
X034200Y050300D02*
X035400D01*
D34*
X051636Y046886D02*
G03*
X051636Y046886I-000049J000000D01*
G01*
X044715Y047218D02*
G03*
X044715Y047218I-000049J000000D01*
G01*
X048356Y054359D02*
G03*
X048356Y054359I-000049J000000D01*
G01*
X039469Y046557D02*
G03*
X039469Y046557I-000049J000000D01*
G01*
X048495Y042131D02*
G03*
X048495Y042131I-000049J000000D01*
G01*
D35*
X045238Y048114D02*
G03*
X045238Y048114I-000118J000000D01*
G01*
D36*
X037860Y052400D02*
G03*
X037860Y052400I-000060J000000D01*
G01*
D37*
X043000Y038500D02*
Y040500D01*
Y038500D02*
X044000D01*
Y040500D01*
X043000D02*
X044000D01*
X041000Y038500D02*
Y040500D01*
Y038500D02*
X042000D01*
Y040500D01*
X041000D02*
X042000D01*
X039000Y038500D02*
Y040500D01*
Y038500D02*
X040000D01*
Y040500D01*
X039000D02*
X040000D01*
X037000Y038500D02*
Y040500D01*
Y038500D02*
X038000D01*
Y040500D01*
X037000D02*
X038000D01*
X051675Y046409D02*
Y046586D01*
X048525Y046409D02*
Y046586D01*
Y044814D02*
Y044991D01*
X051675Y044814D02*
Y044991D01*
X048525Y046586D02*
X051675D01*
X048525Y044814D02*
X051675D01*
X044726Y047720D02*
X051774D01*
X044726Y050280D02*
X051774D01*
X044726Y047720D02*
Y050280D01*
X051774Y047720D02*
Y050280D01*
X043500Y043594D02*
Y044106D01*
Y042644D02*
Y043156D01*
X043524Y047570D02*
Y048082D01*
X037194Y043150D02*
X037706D01*
X038068Y043176D02*
X038580D01*
X051750Y038250D02*
X052750D01*
X051750Y044250D02*
X052750D01*
Y038250D02*
Y044250D01*
X051750Y038250D02*
Y044250D01*
X048661Y054241D02*
X048976D01*
Y053926D02*
Y054241D01*
X048661Y053059D02*
X048976D01*
Y053374D01*
X038244Y039250D02*
X038756D01*
X040244D02*
X040756D01*
X046906Y053714D02*
X047418D01*
X046044Y053700D02*
X046556D01*
X049644D02*
X050156D01*
X042244Y039250D02*
X042756D01*
X044244D02*
X044756D01*
X036210Y054344D02*
Y054856D01*
X036220Y053374D02*
Y053886D01*
X051500Y038500D02*
Y039500D01*
X049500Y038500D02*
X051500D01*
X049500D02*
Y039500D01*
X051500D01*
X049433Y052255D02*
X049747D01*
X049433Y051665D02*
X049747D01*
X050785Y043763D02*
Y044077D01*
X051375Y043763D02*
Y044077D01*
X048675Y043773D02*
Y044087D01*
X049265Y043773D02*
Y044087D01*
X047495Y041143D02*
Y041457D01*
X046905Y041143D02*
Y041457D01*
X040015Y045363D02*
Y045677D01*
X040605Y045363D02*
Y045677D01*
X040605Y052893D02*
Y053207D01*
X040015Y052893D02*
Y053207D01*
X038140Y045435D02*
Y046065D01*
X039360Y045435D02*
Y046065D01*
X038140Y045435D02*
X039360D01*
X038140Y046065D02*
X039360D01*
X041474Y042326D02*
X042474D01*
X041474D02*
Y049326D01*
X042474D01*
Y042326D02*
Y049326D01*
X035500Y042500D02*
X036500D01*
X035500D02*
Y045500D01*
X036500D01*
Y042500D02*
Y045500D01*
X035400Y055350D02*
X051400D01*
X035400D02*
Y056350D01*
X036150D01*
X051400D01*
Y055350D02*
Y056350D01*
X048761Y042013D02*
X048879D01*
X048761Y041147D02*
X048879D01*
X048761D02*
Y042013D01*
X048879Y041147D02*
Y042013D01*
D38*
X051770Y044550D02*
Y045050D01*
X052020D01*
X052103Y044967D01*
Y044800D01*
X052020Y044717D01*
X051770D01*
X052603Y044550D02*
X052270D01*
X052603Y044883D01*
Y044967D01*
X052520Y045050D01*
X052353D01*
X052270Y044967D01*
X044400Y043700D02*
Y044200D01*
X044650D01*
X044733Y044117D01*
Y043950D01*
X044650Y043867D01*
X044400D01*
X044567D02*
X044733Y043700D01*
X044900D02*
X045066D01*
X044983D01*
Y044200D01*
X044900Y044117D01*
X049300Y042800D02*
Y042383D01*
X049383Y042300D01*
X049550D01*
X049633Y042383D01*
Y042800D01*
X049800Y042300D02*
X049966D01*
X049883D01*
Y042800D01*
X049800Y042717D01*
X049183Y054593D02*
Y054927D01*
X049100Y055010D01*
X048933D01*
X048850Y054927D01*
Y054593D01*
X048933Y054510D01*
X049100D01*
X049017Y054677D02*
X049183Y054510D01*
X049100D02*
X049183Y054593D01*
X049350Y054510D02*
X049516D01*
X049433D01*
Y055010D01*
X049350Y054927D01*
X052000Y046900D02*
Y046817D01*
X052167Y046650D01*
X052333Y046817D01*
Y046900D01*
X052167Y046650D02*
Y046400D01*
X052500D02*
X052666D01*
X052583D01*
Y046900D01*
X052500Y046817D01*
X038200Y037800D02*
Y038300D01*
X038450D01*
X038533Y038217D01*
Y038050D01*
X038450Y037967D01*
X038200D01*
X038367D02*
X038533Y037800D01*
X038700D02*
X038866D01*
X038783D01*
Y038300D01*
X038700Y038217D01*
X039450Y038300D02*
X039116D01*
Y038050D01*
X039283Y038133D01*
X039366D01*
X039450Y038050D01*
Y037883D01*
X039366Y037800D01*
X039200D01*
X039116Y037883D01*
X040200Y037800D02*
Y038300D01*
X040450D01*
X040533Y038217D01*
Y038050D01*
X040450Y037967D01*
X040200D01*
X040367D02*
X040533Y037800D01*
X040700D02*
X040866D01*
X040783D01*
Y038300D01*
X040700Y038217D01*
X041366Y037800D02*
Y038300D01*
X041116Y038050D01*
X041450D01*
X046930Y054620D02*
Y055120D01*
X047180D01*
X047263Y055037D01*
Y054870D01*
X047180Y054787D01*
X046930D01*
X047097D02*
X047263Y054620D01*
X047430D02*
X047596D01*
X047513D01*
Y055120D01*
X047430Y055037D01*
X047846D02*
X047930Y055120D01*
X048096D01*
X048180Y055037D01*
Y054953D01*
X048096Y054870D01*
X048013D01*
X048096D01*
X048180Y054787D01*
Y054703D01*
X048096Y054620D01*
X047930D01*
X047846Y054703D01*
X045300Y054600D02*
Y055100D01*
X045550D01*
X045633Y055017D01*
Y054850D01*
X045550Y054767D01*
X045300D01*
X045467D02*
X045633Y054600D01*
X045800D02*
X045966D01*
X045883D01*
Y055100D01*
X045800Y055017D01*
X046550Y054600D02*
X046216D01*
X046550Y054933D01*
Y055017D01*
X046466Y055100D01*
X046300D01*
X046216Y055017D01*
X050300Y054600D02*
Y055100D01*
X050550D01*
X050633Y055017D01*
Y054850D01*
X050550Y054767D01*
X050300D01*
X050467D02*
X050633Y054600D01*
X050800D02*
X050966D01*
X050883D01*
Y055100D01*
X050800Y055017D01*
X051216Y054600D02*
X051383D01*
X051300D01*
Y055100D01*
X051216Y055017D01*
X042200Y037800D02*
Y038300D01*
X042450D01*
X042533Y038217D01*
Y038050D01*
X042450Y037967D01*
X042200D01*
X042367D02*
X042533Y037800D01*
X042700D02*
X042866D01*
X042783D01*
Y038300D01*
X042700Y038217D01*
X043116D02*
X043200Y038300D01*
X043366D01*
X043450Y038217D01*
Y037883D01*
X043366Y037800D01*
X043200D01*
X043116Y037883D01*
Y038217D01*
X044200Y037800D02*
Y038300D01*
X044450D01*
X044533Y038217D01*
Y038050D01*
X044450Y037967D01*
X044200D01*
X044367D02*
X044533Y037800D01*
X044700Y037883D02*
X044783Y037800D01*
X044950D01*
X045033Y037883D01*
Y038217D01*
X044950Y038300D01*
X044783D01*
X044700Y038217D01*
Y038133D01*
X044783Y038050D01*
X045033D01*
X034400Y054300D02*
Y054800D01*
X034650D01*
X034733Y054717D01*
Y054550D01*
X034650Y054467D01*
X034400D01*
X034567D02*
X034733Y054300D01*
X034900Y054717D02*
X034983Y054800D01*
X035150D01*
X035233Y054717D01*
Y054633D01*
X035150Y054550D01*
X035233Y054467D01*
Y054383D01*
X035150Y054300D01*
X034983D01*
X034900Y054383D01*
Y054467D01*
X034983Y054550D01*
X034900Y054633D01*
Y054717D01*
X034983Y054550D02*
X035150D01*
X034400Y053400D02*
Y053900D01*
X034650D01*
X034733Y053817D01*
Y053650D01*
X034650Y053567D01*
X034400D01*
X034567D02*
X034733Y053400D01*
X034900Y053900D02*
X035233D01*
Y053817D01*
X034900Y053483D01*
Y053400D01*
X034200Y055600D02*
Y056100D01*
X034450D01*
X034533Y056017D01*
Y055850D01*
X034450Y055767D01*
X034200D01*
X034700Y056100D02*
X035033D01*
Y056017D01*
X034700Y055683D01*
Y055600D01*
X049600Y038200D02*
Y037700D01*
X049850D01*
X049933Y037783D01*
Y037867D01*
X049850Y037950D01*
X049600D01*
X049850D01*
X049933Y038033D01*
Y038117D01*
X049850Y038200D01*
X049600D01*
X050100Y037700D02*
Y038033D01*
X050266Y038200D01*
X050433Y038033D01*
Y037700D01*
Y037950D01*
X050100D01*
X050600Y038200D02*
X050933D01*
X050766D01*
Y037700D01*
X051100Y038200D02*
X051433D01*
X051266D01*
Y037700D01*
X046200Y040300D02*
Y039800D01*
X046533D01*
X046700D02*
X046866D01*
X046783D01*
Y040300D01*
X046700Y040217D01*
X043500Y050900D02*
X043667D01*
X043583D01*
Y050400D01*
X043500D01*
X043667D01*
X044250Y050817D02*
X044166Y050900D01*
X044000D01*
X043917Y050817D01*
Y050483D01*
X044000Y050400D01*
X044166D01*
X044250Y050483D01*
X044666Y050400D02*
Y050900D01*
X044416Y050650D01*
X044750D01*
X050833Y052717D02*
X050750Y052800D01*
X050583D01*
X050500Y052717D01*
Y052383D01*
X050583Y052300D01*
X050750D01*
X050833Y052383D01*
X051333Y052800D02*
X051166Y052717D01*
X051000Y052550D01*
Y052383D01*
X051083Y052300D01*
X051250D01*
X051333Y052383D01*
Y052467D01*
X051250Y052550D01*
X051000D01*
X050083Y044167D02*
X050000Y044250D01*
X049833D01*
X049750Y044167D01*
Y043833D01*
X049833Y043750D01*
X050000D01*
X050083Y043833D01*
X050583Y044250D02*
X050250D01*
Y044000D01*
X050416Y044083D01*
X050500D01*
X050583Y044000D01*
Y043833D01*
X050500Y043750D01*
X050333D01*
X050250Y043833D01*
X047933Y044117D02*
X047850Y044200D01*
X047683D01*
X047600Y044117D01*
Y043783D01*
X047683Y043700D01*
X047850D01*
X047933Y043783D01*
X048350Y043700D02*
Y044200D01*
X048100Y043950D01*
X048433D01*
X045833Y041707D02*
X045750Y041790D01*
X045583D01*
X045500Y041707D01*
Y041373D01*
X045583Y041290D01*
X045750D01*
X045833Y041373D01*
X046000Y041707D02*
X046083Y041790D01*
X046250D01*
X046333Y041707D01*
Y041623D01*
X046250Y041540D01*
X046166D01*
X046250D01*
X046333Y041457D01*
Y041373D01*
X046250Y041290D01*
X046083D01*
X046000Y041373D01*
X036800Y048000D02*
X036967D01*
X036883D01*
Y047500D01*
X036800D01*
X036967D01*
X037550Y047917D02*
X037466Y048000D01*
X037300D01*
X037217Y047917D01*
Y047583D01*
X037300Y047500D01*
X037466D01*
X037550Y047583D01*
X037716Y047500D02*
X037883D01*
X037800D01*
Y048000D01*
X037716Y047917D01*
X040833Y046917D02*
X040750Y047000D01*
X040583D01*
X040500Y046917D01*
Y046583D01*
X040583Y046500D01*
X040750D01*
X040833Y046583D01*
X041000Y046500D02*
X041166D01*
X041083D01*
Y047000D01*
X041000Y046917D01*
X041253Y053777D02*
X041170Y053860D01*
X041003D01*
X040920Y053777D01*
Y053443D01*
X041003Y053360D01*
X041170D01*
X041253Y053443D01*
X041753Y053360D02*
X041420D01*
X041753Y053693D01*
Y053777D01*
X041670Y053860D01*
X041503D01*
X041420Y053777D01*
X039100Y047600D02*
X039267D01*
X039183D01*
Y047100D01*
X039100D01*
X039267D01*
X039850Y047517D02*
X039766Y047600D01*
X039600D01*
X039517Y047517D01*
Y047183D01*
X039600Y047100D01*
X039766D01*
X039850Y047183D01*
X040016Y047517D02*
X040100Y047600D01*
X040266D01*
X040350Y047517D01*
Y047433D01*
X040266Y047350D01*
X040183D01*
X040266D01*
X040350Y047267D01*
Y047183D01*
X040266Y047100D01*
X040100D01*
X040016Y047183D01*
X044376Y042624D02*
Y043124D01*
X044626D01*
X044709Y043041D01*
Y042874D01*
X044626Y042791D01*
X044376D01*
X044543D02*
X044709Y042624D01*
X045209D02*
X044876D01*
X045209Y042957D01*
Y043041D01*
X045126Y043124D01*
X044959D01*
X044876Y043041D01*
X043100Y048400D02*
Y048900D01*
X043350D01*
X043433Y048817D01*
Y048650D01*
X043350Y048567D01*
X043100D01*
X043267D02*
X043433Y048400D01*
X043600Y048817D02*
X043683Y048900D01*
X043850D01*
X043933Y048817D01*
Y048733D01*
X043850Y048650D01*
X043766D01*
X043850D01*
X043933Y048567D01*
Y048483D01*
X043850Y048400D01*
X043683D01*
X043600Y048483D01*
X036700Y041800D02*
Y042300D01*
X036950D01*
X037033Y042217D01*
Y042050D01*
X036950Y041967D01*
X036700D01*
X036867D02*
X037033Y041800D01*
X037533Y042300D02*
X037200D01*
Y042050D01*
X037366Y042133D01*
X037450D01*
X037533Y042050D01*
Y041883D01*
X037450Y041800D01*
X037283D01*
X037200Y041883D01*
X038100Y041800D02*
Y042300D01*
X038350D01*
X038433Y042217D01*
Y042050D01*
X038350Y041967D01*
X038100D01*
X038267D02*
X038433Y041800D01*
X038933Y042300D02*
X038766Y042217D01*
X038600Y042050D01*
Y041883D01*
X038683Y041800D01*
X038850D01*
X038933Y041883D01*
Y041967D01*
X038850Y042050D01*
X038600D01*
X036100Y053100D02*
X036267D01*
X036183D01*
Y052600D01*
X036100D01*
X036267D01*
X036850Y053017D02*
X036766Y053100D01*
X036600D01*
X036517Y053017D01*
Y052683D01*
X036600Y052600D01*
X036766D01*
X036850Y052683D01*
X037350Y052600D02*
X037016D01*
X037350Y052933D01*
Y053017D01*
X037266Y053100D01*
X037100D01*
X037016Y053017D01*
X034500Y046300D02*
Y046633D01*
Y046467D01*
X035000D01*
X034500Y047133D02*
Y046800D01*
X035000D01*
Y047133D01*
X034750Y046800D02*
Y046966D01*
X035000Y047300D02*
X034500D01*
X034667Y047466D01*
X034500Y047633D01*
X035000D01*
Y047800D02*
X034500D01*
Y048049D01*
X034583Y048133D01*
X034750D01*
X034833Y048049D01*
Y047800D01*
X035000Y048299D02*
Y048466D01*
Y048383D01*
X034500D01*
X034583Y048299D01*
D39*
X034400Y051450D02*
X034733D01*
X034567Y051617D02*
Y051283D01*
X034900Y051200D02*
Y051700D01*
X035150D01*
X035233Y051617D01*
Y051450D01*
X035150Y051367D01*
X034900D01*
X035400Y051700D02*
Y051200D01*
Y051450D01*
X035733D01*
Y051700D01*
Y051200D01*
X034400Y050750D02*
X034733D01*
X034900Y050500D02*
Y051000D01*
X035150D01*
X035233Y050917D01*
Y050750D01*
X035150Y050667D01*
X034900D01*
X035400Y051000D02*
Y050500D01*
Y050750D01*
X035733D01*
Y051000D01*
Y050500D01*
M02*
